{"title":"Super Singh (2017) (Punjabi) DVD-SCR 700mb","magnet":"magnet:?xt=urn:btih:e82c4c4604a0da6801726f4c42ae201988de9924&dn=Super+Singh+%282017%29+%28Punjabi%29+DVD-SCR+700mb&tr=udp%3A%2F%2Ftracker.leechers-paradise.org%3A6969&tr=udp%3A%2F%2Fzer0day.ch%3A1337&tr=udp%3A%2F%2Fopen.demonii.com%3A1337&tr=udp%3A%2F%2Ftracker.coppersurfer.tk%3A6969&tr=udp%3A%2F%2Fexodus.desync.com%3A6969","uploader":"mtlulla","categoryP":"video","categoryS":"movies","size":"703389760","seeders":"21","leechers":"23","description":"\r\nVideo \r\nID : 1 \r\nCodec ID : V_MPEG4/ISO/AVC \r\nDuration : 2 h 31 min \r\nBit rate : 512 kb/s \r\nWidth : 640 pixels \r\nHeight : 480 pixels \r\nDisplay aspect ratio : 2.2:1 \r\nOriginal display aspect ratio : 2.2:1 \r\nFrame rate mode : Constant \r\nFrame rate : 25.000 FPS \r\nStream size : 564 MiB (84%) \r\nWriting library : x264 core 77 \r\n\r\nAudio \r\nFormat : AAC \r\nDuration : 2 h 31 min \r\nBit rate : 96.0 kb/s \r\nChannel(s) : 2 channels \r\nChannel positions : Front: L R \r\nSampling rate : 44.1 kHz \r\nFrame rate : 43.066 FPS (1024 spf) \r\nCompression mode : Lossy \r\nStream size : 104 MiB (16% \r\n\r\nScree Shooot.......\n <a href=\"\nhttp://i.imgur.com/udsnYBO.jpg\" rel=\"nofollow\" target=\"_NEW\">\nhttp://i.imgur.com/udsnYBO.jpg</a>\r\n <a href=\"\nhttp://i.imgur.com/uslgj2t.jpg\" rel=\"nofollow\" target=\"_NEW\">\nhttp://i.imgur.com/uslgj2t.jpg</a> <a href=\"\nhttp://i.imgur.com/CHyD8Qj.jpg\" rel=\"nofollow\" target=\"_NEW\">\nhttp://i.imgur.com/CHyD8Qj.jpg</a>","last_updated":"2017-07-01T12:03:18.788Z","parsed":{"xt":"urn:btih:e82c4c4604a0da6801726f4c42ae201988de9924","dn":"Super Singh (2017) (Punjabi) DVD-SCR 700mb","tr":["udp://exodus.desync.com:6969","udp://open.demonii.com:1337","udp://tracker.coppersurfer.tk:6969","udp://tracker.leechers-paradise.org:6969","udp://zer0day.ch:1337"],"infoHash":"e82c4c4604a0da6801726f4c42ae201988de9924","infoHashBuffer":{"type":"Buffer","data":[232,44,76,70,4,160,218,104,1,114,111,76,66,174,32,25,136,222,153,36]},"name":"Super Singh (2017) (Punjabi) DVD-SCR 700mb","announce":["udp://exodus.desync.com:6969","udp://open.demonii.com:1337","udp://tracker.coppersurfer.tk:6969","udp://tracker.leechers-paradise.org:6969","udp://zer0day.ch:1337"],"urlList":[]}}